<svg xmlns="http://www.w3.org/2000/svg" version="1.1" xmlns:xlink="http://www.w3.org/1999/xlink" xmlns:svgjs="http://svgjs.dev/svgjs" width="2000" height="1368" viewBox="0 0 2000 1368"><g transform="matrix(1,0,0,1,-0.20603802123048354,0.5538573925718993)"><svg viewBox="0 0 361 247" data-background-color="#50a060" preserveAspectRatio="xMidYMid meet" height="1368" width="2000" xmlns="http://www.w3.org/2000/svg" xmlns:xlink="http://www.w3.org/1999/xlink"><g id="tight-bounds" transform="matrix(1,0,0,1,0.03718986283209347,-0.10000202921438017)"><svg viewBox="0 0 360.9256202743358 247.2" height="247.2" width="360.9256202743358"><g><svg viewBox="0 0 395.52 270.8938864624908" height="247.2" width="360.9256202743358"><g transform="matrix(1,0,0,1,0,167.42328955755343)"><svg viewBox="0 0 395.52 103.47059690493735" height="103.47059690493735" width="395.52"><g id="textblocktransform"><svg viewBox="0 0 395.52 103.47059690493735" height="103.47059690493735" width="395.52" id="textblock"><g><svg viewBox="0 0 395.52 103.47059690493735" height="103.47059690493735" width="395.52"><g transform="matrix(1,0,0,1,0,0)"><svg width="395.52" viewBox="2.049999952316284 -34.900001525878906 135.69000244140625 35.5" height="103.47059690493735" data-palette-color="#096a2e"><path d="M13.6 0.6Q8.5 0.6 5.28-1.9 2.05-4.4 2.05-9.7L2.05-9.7 2.1-10.7 6.65-10.7 6.6-9.65Q6.6-6.6 8.47-5.03 10.35-3.45 13.4-3.45L13.4-3.45Q16.85-3.45 18.73-4.93 20.6-6.4 20.6-9.15L20.6-9.15Q20.6-11 19.58-12.18 18.55-13.35 17.03-14.05 15.5-14.75 12.85-15.6L12.85-15.6Q9.6-16.7 7.6-17.7 5.6-18.7 4.17-20.63 2.75-22.55 2.75-25.7L2.75-25.7Q2.75-30.2 5.8-32.55 8.85-34.9 13.65-34.9L13.65-34.9Q18.45-34.9 21.43-32.52 24.4-30.15 24.4-25.25L24.4-25.25 24.4-24.65 19.85-24.65 19.85-25.4Q19.85-27.95 18.13-29.4 16.4-30.85 13.75-30.85L13.75-30.85Q10.9-30.85 9.15-29.63 7.4-28.4 7.4-26.05L7.4-26.05Q7.4-24.3 8.4-23.18 9.4-22.05 10.9-21.38 12.4-20.7 15-19.85L15-19.85Q18.3-18.75 20.33-17.78 22.35-16.8 23.78-14.88 25.2-12.95 25.2-9.9L25.2-9.9Q25.2-4.4 22.08-1.9 18.95 0.6 13.6 0.6L13.6 0.6ZM43.3 0.6Q36.9 0.6 33.35-3.9 29.8-8.4 29.8-17.15L29.8-17.15Q29.8-25.9 33.35-30.4 36.9-34.9 43.3-34.9L43.3-34.9Q49.7-34.9 53.25-30.4 56.8-25.9 56.8-17.15L56.8-17.15Q56.8-8.4 53.25-3.9 49.7 0.6 43.3 0.6L43.3 0.6ZM43.3-3.45Q47.5-3.45 49.85-6.6 52.2-9.75 52.2-15.9L52.2-15.9 52.2-18.4Q52.2-24.55 49.85-27.7 47.5-30.85 43.3-30.85L43.3-30.85Q39.1-30.85 36.75-27.7 34.4-24.55 34.4-18.4L34.4-18.4 34.4-15.9Q34.4-9.75 36.75-6.6 39.1-3.45 43.3-3.45L43.3-3.45ZM62.75 0L62.75-34.3 67.15-34.3 67.15-4 81.15-4 81.15 0 62.75 0ZM81.99 0L92.89-34.3 98.54-34.3 109.44 0 104.69 0 102.34-7.65 88.74-7.65 86.39 0 81.99 0ZM89.94-11.65L101.09-11.65 96.44-26.9Q96.09-28 95.64-30.7L95.64-30.7 95.44-30.7Q94.99-27.95 94.64-26.9L94.64-26.9 89.94-11.65ZM112.89 0L112.89-34.3 126.69-34.3Q131.64-34.3 134.29-31.73 136.94-29.15 136.94-24.8L136.94-24.8Q136.94-21.6 135.34-19.25 133.74-16.9 130.84-15.95L130.84-15.95 137.74 0 132.84 0 126.49-15.15 117.29-15.15 117.29 0 112.89 0ZM117.29-19.15L126.54-19.15Q129.14-19.15 130.74-20.7 132.34-22.25 132.34-24.8L132.34-24.8Q132.34-27.4 130.84-28.85 129.34-30.3 126.54-30.3L126.54-30.3 117.29-30.3 117.29-19.15Z" opacity="1" transform="matrix(1,0,0,1,0,0)" fill="#000000" class="wordmark-text-0" data-fill-palette-color="primary" id="text-0"></path></svg></g></svg></g></svg></g></svg></g><g transform="matrix(1,0,0,1,118.26181753868828,0)"><svg viewBox="0 0 158.99636492262343 142.99636492262343" height="142.99636492262343" width="158.99636492262343"><g><svg xmlns="http://www.w3.org/2000/svg" xmlns:xlink="http://www.w3.org/1999/xlink" version="1.1" x="8" y="0" viewBox="0 0 100 100" enable-background="new 0 0 100 100" xml:space="preserve" height="142.99636492262343" width="142.99636492262343" class="icon-icon-0" data-fill-palette-color="accent" id="icon-0"><g fill="#c9efc7" data-fill-palette-color="accent"><circle fill="#000000" cx="50" cy="50" r="24" data-fill-palette-color="accent"></circle></g><g fill="#c9efc7" data-fill-palette-color="accent"><path fill="#000000" d="M50 100c-1.827 0-3.308-1.481-3.308-3.308V79.619c0-1.827 1.48-3.308 3.308-3.308s3.308 1.48 3.308 3.308v17.073C53.308 98.519 51.827 100 50 100z" data-fill-palette-color="accent"></path></g><g fill="#c9efc7" data-fill-palette-color="accent"><path fill="#000000" d="M50 23.688c-1.827 0-3.308-1.481-3.308-3.308V3.308C46.692 1.481 48.173 0 50 0s3.308 1.481 3.308 3.308v17.073C53.308 22.208 51.827 23.688 50 23.688z" data-fill-palette-color="accent"></path></g><g fill="#c9efc7" data-fill-palette-color="accent"><path fill="#000000" d="M20.381 53.308H3.308C1.481 53.308 0 51.827 0 50c0-1.827 1.481-3.308 3.308-3.308h17.073c1.827 0 3.308 1.48 3.308 3.308C23.688 51.827 22.208 53.308 20.381 53.308z" data-fill-palette-color="accent"></path></g><g fill="#c9efc7" data-fill-palette-color="accent"><path fill="#000000" d="M96.692 53.308H79.619c-1.827 0-3.308-1.481-3.308-3.308 0-1.827 1.48-3.308 3.308-3.308h17.073c1.826 0 3.308 1.48 3.308 3.308C100 51.827 98.519 53.308 96.692 53.308z" data-fill-palette-color="accent"></path></g><g fill="#c9efc7" data-fill-palette-color="accent"><path fill="#000000" d="M13.254 90.054c-0.847 0-1.693-0.323-2.339-0.969-1.292-1.292-1.292-3.386 0-4.678l13.437-13.437c1.292-1.292 3.386-1.292 4.678 0s1.292 3.386 0 4.678L15.593 89.085C14.947 89.731 14.101 90.054 13.254 90.054z" data-fill-palette-color="accent"></path></g><g fill="#c9efc7" data-fill-palette-color="accent"><path fill="#000000" d="M73.311 29.998c-0.847 0-1.693-0.323-2.34-0.969-1.291-1.292-1.291-3.386 0-4.678l13.437-13.437c1.292-1.292 3.386-1.292 4.679 0 1.291 1.292 1.291 3.386 0 4.678L75.649 29.029C75.003 29.675 74.157 29.998 73.311 29.998z" data-fill-palette-color="accent"></path></g><g fill="#c9efc7" data-fill-palette-color="accent"><path fill="#000000" d="M26.69 29.999c-0.847 0-1.692-0.323-2.339-0.969L10.915 15.593c-1.292-1.292-1.292-3.386 0-4.678 1.293-1.292 3.387-1.292 4.678 0l13.437 13.437c1.292 1.292 1.292 3.386 0 4.678C28.384 29.676 27.537 29.999 26.69 29.999z" data-fill-palette-color="accent"></path></g><g fill="#c9efc7" data-fill-palette-color="accent"><path fill="#000000" d="M86.746 90.054c-0.847 0-1.692-0.323-2.339-0.969L70.971 75.648c-1.292-1.292-1.292-3.386 0-4.678 1.292-1.292 3.386-1.292 4.678 0l13.438 13.437c1.291 1.292 1.291 3.386 0 4.678C88.439 89.731 87.593 90.054 86.746 90.054z" data-fill-palette-color="accent"></path></g></svg></g></svg></g><g><rect width="100.96462767585619" height="9.331085210543257" y="132.66527971208018" x="277.2581824613117" fill="#000000" data-fill-palette-color="accent"></rect><rect width="100.96462767585619" height="9.331085210543257" y="132.66527971208018" x="17.297189862832084" fill="#000000" data-fill-palette-color="accent"></rect><rect width="100.96462767585619" height="9.331085210543257" y="114.00310929099365" x="277.2581824613117" fill="#000000" data-fill-palette-color="accent"></rect><rect width="100.96462767585619" height="9.331085210543257" y="114.00310929099365" x="17.297189862832084" fill="#000000" data-fill-palette-color="accent"></rect></g></svg></g><defs></defs></svg><rect width="360.9256202743358" height="247.2" fill="none" stroke="none" visibility="hidden"></rect></g></svg></g></svg>