<svg xmlns="http://www.w3.org/2000/svg" version="1.1" xmlns:xlink="http://www.w3.org/1999/xlink" xmlns:svgjs="http://svgjs.dev/svgjs" width="128" height="128" viewBox="0 0 128 128"><g transform="matrix(0.8046875,0,0,0.8046875,12.760752631578946,12.760752631578946)"><svg viewBox="0 0 95 95" data-background-color="#50a060" preserveAspectRatio="xMidYMid meet" height="128" width="128" xmlns="http://www.w3.org/2000/svg" xmlns:xlink="http://www.w3.org/1999/xlink"><g id="tight-bounds" transform="matrix(1,0,0,1,-0.24049999999999727,-0.24049999999999727)"><svg viewBox="0 0 95.481 95.481" height="95.481" width="95.481"><g><svg viewBox="0 0 95.481 95.481" height="95.481" width="95.481"><g><svg viewBox="0 0 95.481 95.481" height="95.481" width="95.481"><g id="textblocktransform"><svg viewBox="0 0 95.481 95.481" height="95.481" width="95.481" id="textblock"><g><svg viewBox="0 0 95.481 95.481" height="95.481" width="95.481"><g><svg viewBox="0 0 95.481 95.481" height="95.481" width="95.481"><g><svg xmlns="http://www.w3.org/2000/svg" xmlns:xlink="http://www.w3.org/1999/xlink" version="1.1" x="0" y="0" viewBox="0 0 100 100" enable-background="new 0 0 100 100" xml:space="preserve" height="95.481" width="95.481" class="icon-icon-0" data-fill-palette-color="accent" id="icon-0"><g fill="#1a6717" data-fill-palette-color="accent"><circle fill="#1a6717" cx="50" cy="50" r="24" data-fill-palette-color="accent"></circle></g><g fill="#1a6717" data-fill-palette-color="accent"><path fill="#1a6717" d="M50 100c-1.827 0-3.308-1.481-3.308-3.308V79.619c0-1.827 1.48-3.308 3.308-3.308s3.308 1.48 3.308 3.308v17.073C53.308 98.519 51.827 100 50 100z" data-fill-palette-color="accent"></path></g><g fill="#1a6717" data-fill-palette-color="accent"><path fill="#1a6717" d="M50 23.688c-1.827 0-3.308-1.481-3.308-3.308V3.308C46.692 1.481 48.173 0 50 0s3.308 1.481 3.308 3.308v17.073C53.308 22.208 51.827 23.688 50 23.688z" data-fill-palette-color="accent"></path></g><g fill="#1a6717" data-fill-palette-color="accent"><path fill="#1a6717" d="M20.381 53.308H3.308C1.481 53.308 0 51.827 0 50c0-1.827 1.481-3.308 3.308-3.308h17.073c1.827 0 3.308 1.48 3.308 3.308C23.688 51.827 22.208 53.308 20.381 53.308z" data-fill-palette-color="accent"></path></g><g fill="#1a6717" data-fill-palette-color="accent"><path fill="#1a6717" d="M96.692 53.308H79.619c-1.827 0-3.308-1.481-3.308-3.308 0-1.827 1.48-3.308 3.308-3.308h17.073c1.826 0 3.308 1.48 3.308 3.308C100 51.827 98.519 53.308 96.692 53.308z" data-fill-palette-color="accent"></path></g><g fill="#1a6717" data-fill-palette-color="accent"><path fill="#1a6717" d="M13.254 90.054c-0.847 0-1.693-0.323-2.339-0.969-1.292-1.292-1.292-3.386 0-4.678l13.437-13.437c1.292-1.292 3.386-1.292 4.678 0s1.292 3.386 0 4.678L15.593 89.085C14.947 89.731 14.101 90.054 13.254 90.054z" data-fill-palette-color="accent"></path></g><g fill="#1a6717" data-fill-palette-color="accent"><path fill="#1a6717" d="M73.311 29.998c-0.847 0-1.693-0.323-2.34-0.969-1.291-1.292-1.291-3.386 0-4.678l13.437-13.437c1.292-1.292 3.386-1.292 4.679 0 1.291 1.292 1.291 3.386 0 4.678L75.649 29.029C75.003 29.675 74.157 29.998 73.311 29.998z" data-fill-palette-color="accent"></path></g><g fill="#1a6717" data-fill-palette-color="accent"><path fill="#1a6717" d="M26.69 29.999c-0.847 0-1.692-0.323-2.339-0.969L10.915 15.593c-1.292-1.292-1.292-3.386 0-4.678 1.293-1.292 3.387-1.292 4.678 0l13.437 13.437c1.292 1.292 1.292 3.386 0 4.678C28.384 29.676 27.537 29.999 26.69 29.999z" data-fill-palette-color="accent"></path></g><g fill="#1a6717" data-fill-palette-color="accent"><path fill="#1a6717" d="M86.746 90.054c-0.847 0-1.692-0.323-2.339-0.969L70.971 75.648c-1.292-1.292-1.292-3.386 0-4.678 1.292-1.292 3.386-1.292 4.678 0l13.438 13.437c1.291 1.292 1.291 3.386 0 4.678C88.439 89.731 87.593 90.054 86.746 90.054z" data-fill-palette-color="accent"></path></g></svg></g></svg></g></svg></g></svg></g></svg></g><g></g></svg></g><defs></defs></svg><rect width="95.481" height="95.481" fill="none" stroke="none" visibility="hidden"></rect></g></svg></g></svg>